<?xml version="1.0" encoding="UTF-8"?>
<svg width="55px" height="55px" viewBox="0 0 55 55" version="1.1" xmlns="http://www.w3.org/2000/svg" xmlns:xlink="http://www.w3.org/1999/xlink">
    <!-- Generator: Sketch 64 (93537) - https://sketch.com -->
    <title>Artboard</title>
    <desc>Created with Sketch.</desc>
    <g id="Artboard" stroke="none" stroke-width="1" fill="none" fill-rule="evenodd">
        <path d="M43.4329063,53 L36.9959541,43.2633698 C38.8129917,42.3444508 40.4608901,41.2006901 41.9396494,39.8320874 C43.4184086,38.4634848 44.6797033,36.9335825 45.7235334,35.2423807 C46.7673635,33.5511788 47.5743987,31.7280046 48.1446392,29.772858 C48.7148797,27.8177113 49,25.8039103 49,23.7314549 C49,21.7372053 48.743875,19.8113859 48.2316251,17.9539965 C47.7193751,16.0966072 46.9993257,14.3663025 46.0714767,12.7630822 C45.1436278,11.159862 44.022477,9.69350201 42.7080243,8.3640023 C41.3935716,7.03450259 39.9438076,5.90051754 38.3587323,4.96204715 C36.773657,4.02357677 35.0629355,3.29528465 33.2265678,2.77717079 C31.3902,2.25905693 29.4861767,2 27.5144976,2 C25.5428186,2 23.6436278,2.25905693 21.8169252,2.77717079 C19.9902225,3.29528465 18.279501,4.02357677 16.6847606,4.96204715 C15.0900202,5.90051754 13.6354237,7.03450259 12.320971,8.3640023 C11.0065183,9.69350201 9.88053495,11.159862 8.9430209,12.7630822 C8.00550686,14.3663025 7.28062486,16.0966072 6.76837492,17.9539965 C6.25612497,19.8113859 6,21.7372053 6,23.7314549 C6,25.7257044 6.25612497,27.646636 6.76837492,29.4942496 C7.28062486,31.3418631 8.00550686,33.0721679 8.9430209,34.6851639 C9.88053495,36.2981599 11.0065183,37.7694077 12.320971,39.0989074 C13.6354237,40.4284071 15.0900202,41.56728 16.6847606,42.5155262 C18.279501,43.4637723 19.9902225,44.1969523 21.8169252,44.7150661 C23.6436278,45.23318 25.5428186,45.4922369 27.5144976,45.4922369 L27.5144976,45.4922369 L28.224882,45.4922369 C28.4665093,45.4922369 28.7226343,45.4726855 28.9932569,45.4335825 L28.9932569,45.4335825 L33.980445,53 L43.4329063,53 Z M27.5144976,37.0753306 C25.6781299,37.0753306 23.9577433,36.7234043 22.3533378,36.0195515 C20.7489323,35.3156987 19.3474938,34.3576768 18.1490223,33.1454859 C16.9505507,31.933295 16.0033715,30.5207016 15.3074848,28.9077056 C14.6115981,27.2947096 14.2636548,25.5692927 14.2636548,23.7314549 C14.2636548,21.893617 14.6115981,20.1584244 15.3074848,18.5258769 C16.0033715,16.8933295 16.9505507,15.4758482 18.1490223,14.273433 C19.3474938,13.0710178 20.7489323,12.1178838 22.3533378,11.4140311 C23.9577433,10.7101783 25.6781299,10.3582519 27.5144976,10.3582519 C29.3315352,10.3582519 31.0470892,10.7101783 32.6611598,11.4140311 C34.2752304,12.1178838 35.6766689,13.0710178 36.8654754,14.273433 C38.0542819,15.4758482 38.9966285,16.8933295 39.6925152,18.5258769 C40.3884019,20.1584244 40.7363452,21.893617 40.7363452,23.7314549 C40.7363452,25.5692927 40.3884019,27.2947096 39.6925152,28.9077056 C38.9966285,30.5207016 38.0542819,31.933295 36.8654754,33.1454859 C35.6766689,34.3576768 34.2752304,35.3156987 32.6611598,36.0195515 C31.0470892,36.7234043 29.3315352,37.0753306 27.5144976,37.0753306 Z" id="QUARTY" stroke="#FFFFFF" stroke-width="3" fill="#FFFFFF" fill-rule="nonzero"></path>
    </g>
</svg>