<?xml version="1.0" encoding="UTF-8"?>
<svg width="260px" height="67px" viewBox="0 0 260 67" version="1.1" xmlns="http://www.w3.org/2000/svg" xmlns:xlink="http://www.w3.org/1999/xlink">
    <!-- Generator: Sketch 64 (93537) - https://sketch.com -->
    <title>Artboard</title>
    <desc>Created with Sketch.</desc>
    <g id="Artboard" stroke="none" stroke-width="1" fill="none" fill-rule="evenodd">
        <path d="M40.6787109,62.4082031 L34.1748047,52.6816406 C36.0107422,51.7636719 37.6757812,50.6210938 39.1699219,49.2539062 C40.6640625,47.8867188 41.9384766,46.3583984 42.9931641,44.6689453 C44.0478516,42.9794922 44.8632812,41.1582031 45.4394531,39.2050781 C46.015625,37.2519531 46.3037109,35.2402344 46.3037109,33.1699219 C46.3037109,31.1777344 46.0449219,29.2539062 45.5273438,27.3984375 C45.0097656,25.5429688 44.2822266,23.8144531 43.3447266,22.2128906 C42.4072266,20.6113281 41.2744141,19.1464844 39.9462891,17.8183594 C38.6181641,16.4902344 37.1533203,15.3574219 35.5517578,14.4199219 C33.9501953,13.4824219 32.2216797,12.7548828 30.3662109,12.2373047 C28.5107422,11.7197266 26.5869141,11.4609375 24.5947266,11.4609375 C22.6025391,11.4609375 20.6835938,11.7197266 18.8378906,12.2373047 C16.9921875,12.7548828 15.2636719,13.4824219 13.6523438,14.4199219 C12.0410156,15.3574219 10.5712891,16.4902344 9.24316406,17.8183594 C7.91503906,19.1464844 6.77734375,20.6113281 5.83007812,22.2128906 C4.8828125,23.8144531 4.15039062,25.5429688 3.6328125,27.3984375 C3.11523438,29.2539062 2.85644531,31.1777344 2.85644531,33.1699219 C2.85644531,35.1621094 3.11523438,37.0810547 3.6328125,38.9267578 C4.15039062,40.7724609 4.8828125,42.5009766 5.83007812,44.1123047 C6.77734375,45.7236328 7.91503906,47.1933594 9.24316406,48.5214844 C10.5712891,49.8496094 12.0410156,50.9873047 13.6523438,51.9345703 C15.2636719,52.8818359 16.9921875,53.6142578 18.8378906,54.1318359 C20.6835938,54.6494141 22.6025391,54.9082031 24.5947266,54.9082031 L24.5947266,54.9082031 L25.3125,54.9082031 C25.5566406,54.9082031 25.8154297,54.8886719 26.0888672,54.8496094 L26.0888672,54.8496094 L31.1279297,62.4082031 L40.6787109,62.4082031 Z M24.5947266,46.5 C22.7392578,46.5 21.0009766,46.1484375 19.3798828,45.4453125 C17.7587891,44.7421875 16.3427734,43.7851562 15.1318359,42.5742188 C13.9208984,41.3632812 12.9638672,39.9521484 12.2607422,38.3408203 C11.5576172,36.7294922 11.2060547,35.0058594 11.2060547,33.1699219 C11.2060547,31.3339844 11.5576172,29.6005859 12.2607422,27.9697266 C12.9638672,26.3388672 13.9208984,24.9228516 15.1318359,23.7216797 C16.3427734,22.5205078 17.7587891,21.5683594 19.3798828,20.8652344 C21.0009766,20.1621094 22.7392578,19.8105469 24.5947266,19.8105469 C26.4306641,19.8105469 28.1640625,20.1621094 29.7949219,20.8652344 C31.4257812,21.5683594 32.8417969,22.5205078 34.0429688,23.7216797 C35.2441406,24.9228516 36.1962891,26.3388672 36.8994141,27.9697266 C37.6025391,29.6005859 37.9541016,31.3339844 37.9541016,33.1699219 C37.9541016,35.0058594 37.6025391,36.7294922 36.8994141,38.3408203 C36.1962891,39.9521484 35.2441406,41.3632812 34.0429688,42.5742188 C32.8417969,43.7851562 31.4257812,44.7421875 29.7949219,45.4453125 C28.1640625,46.1484375 26.4306641,46.5 24.5947266,46.5 Z M71.7871094,54.0117188 C74.1113281,54.0117188 76.2939453,53.5722656 78.3349609,52.6933594 C80.3759766,51.8144531 82.1582031,50.6181641 83.6816406,49.1044922 C85.2050781,47.5908203 86.40625,45.8134766 87.2851562,43.7724609 C88.1640625,41.7314453 88.6035156,39.5488281 88.6035156,37.2246094 L88.6035156,37.2246094 L88.6035156,12 L80.1953125,12 L80.1953125,37.2246094 C80.1953125,38.3769531 79.9755859,39.4609375 79.5361328,40.4765625 C79.0966797,41.4921875 78.4960938,42.3808594 77.734375,43.1425781 C76.9726562,43.9042969 76.0791016,44.5048828 75.0537109,44.9443359 C74.0283203,45.3837891 72.9394531,45.6035156 71.7871094,45.6035156 C70.6347656,45.6035156 69.5458984,45.3837891 68.5205078,44.9443359 C67.4951172,44.5048828 66.6015625,43.9042969 65.8398438,43.1425781 C65.078125,42.3808594 64.4775391,41.4921875 64.0380859,40.4765625 C63.5986328,39.4609375 63.3789062,38.3769531 63.3789062,37.2246094 L63.3789062,37.2246094 L63.3789062,12 L55,12 L55,37.2246094 C55,39.5488281 55.4394531,41.7314453 56.3183594,43.7724609 C57.1972656,45.8134766 58.3935547,47.5908203 59.9072266,49.1044922 C61.4208984,50.6181641 63.1982422,51.8144531 65.2392578,52.6933594 C67.2802734,53.5722656 69.4628906,54.0117188 71.7871094,54.0117188 Z M107.858398,54 L107.858398,45.5917969 L124.674805,45.5917969 L124.674805,54 L133.083008,54 L133.083008,28.8046875 C133.083008,26.4804688 132.643555,24.2978516 131.764648,22.2568359 C130.885742,20.2158203 129.68457,18.4335938 128.161133,16.9101562 C126.637695,15.3867188 124.855469,14.1855469 122.814453,13.3066406 C120.773438,12.4277344 118.59082,11.9882812 116.266602,11.9882812 C113.942383,11.9882812 111.759766,12.4277344 109.71875,13.3066406 C107.677734,14.1855469 105.900391,15.3867188 104.386719,16.9101562 C102.873047,18.4335938 101.676758,20.2158203 100.797852,22.2568359 C99.9189453,24.2978516 99.4794922,26.4804688 99.4794922,28.8046875 L99.4794922,28.8046875 L99.4794922,54 L107.858398,54 Z M124.674805,37.2128906 L107.858398,37.2128906 L107.858398,28.8046875 C107.858398,27.6523438 108.078125,26.5634766 108.517578,25.5380859 C108.957031,24.5126953 109.557617,23.6191406 110.319336,22.8574219 C111.081055,22.0957031 111.974609,21.4951172 113,21.0556641 C114.025391,20.6162109 115.114258,20.3964844 116.266602,20.3964844 C117.418945,20.3964844 118.507812,20.6162109 119.533203,21.0556641 C120.558594,21.4951172 121.452148,22.0957031 122.213867,22.8574219 C122.975586,23.6191406 123.576172,24.5126953 124.015625,25.5380859 C124.455078,26.5634766 124.674805,27.6523438 124.674805,28.8046875 L124.674805,28.8046875 L124.674805,37.2128906 Z M152.786133,54 L152.786133,45.5917969 L162.19043,45.5332031 L165.852539,54 L174.788086,54 L170.129883,43.0136719 C171.34082,42.2519531 172.43457,41.3535156 173.411133,40.3183594 C174.387695,39.2832031 175.212891,38.1503906 175.886719,36.9199219 C176.560547,35.6894531 177.078125,34.390625 177.439453,33.0234375 C177.800781,31.65625 177.981445,30.25 177.981445,28.8046875 C177.981445,27.2617188 177.78125,25.7773438 177.380859,24.3515625 C176.980469,22.9257812 176.414062,21.5878906 175.681641,20.3378906 C174.949219,19.0878906 174.070312,17.9501953 173.044922,16.9248047 C172.019531,15.8994141 170.886719,15.0205078 169.646484,14.2880859 C168.40625,13.5556641 167.073242,12.9892578 165.647461,12.5888672 C164.22168,12.1884766 162.737305,11.9882812 161.194336,11.9882812 L161.194336,11.9882812 L144.37793,11.9882812 L144.37793,54 L152.786133,54 Z M161.194336,37.2128906 L152.786133,37.2128906 L152.786133,20.3964844 L161.194336,20.3964844 C162.34668,20.3964844 163.430664,20.6162109 164.446289,21.0556641 C165.461914,21.4951172 166.350586,22.0957031 167.112305,22.8574219 C167.874023,23.6191406 168.474609,24.5126953 168.914062,25.5380859 C169.353516,26.5634766 169.573242,27.6523438 169.573242,28.8046875 C169.573242,29.9570312 169.353516,31.0458984 168.914062,32.0712891 C168.474609,33.0966797 167.874023,33.9902344 167.112305,34.7519531 C166.350586,35.5136719 165.461914,36.1142578 164.446289,36.5537109 C163.430664,36.9931641 162.34668,37.2128906 161.194336,37.2128906 L161.194336,37.2128906 Z M204.393555,54 L204.393555,20.3964844 L216.991211,20.3964844 L216.991211,11.9882812 L183.387695,11.9882812 L183.387695,20.3964844 L196.014648,20.3964844 L196.014648,54 L204.393555,54 Z M244.34082,54 L244.34082,40.8457031 C246.196289,40.3769531 247.895508,39.625 249.438477,38.5898438 C250.981445,37.5546875 252.30957,36.3193359 253.422852,34.8837891 C254.536133,33.4482422 255.400391,31.8564453 256.015625,30.1083984 C256.630859,28.3603516 256.938477,26.5195312 256.938477,24.5859375 L256.938477,24.5859375 L256.938477,11.9882812 L248.55957,11.9882812 L248.55957,24.5859375 C248.55957,25.7382812 248.339844,26.8271484 247.900391,27.8525391 C247.460938,28.8779297 246.860352,29.7714844 246.098633,30.5332031 C245.336914,31.2949219 244.443359,31.8955078 243.417969,32.3349609 C242.392578,32.7744141 241.303711,32.9941406 240.151367,32.9941406 C238.999023,32.9941406 237.910156,32.7744141 236.884766,32.3349609 C235.859375,31.8955078 234.96582,31.2949219 234.204102,30.5332031 C233.442383,29.7714844 232.841797,28.8779297 232.402344,27.8525391 C231.962891,26.8271484 231.743164,25.7382812 231.743164,24.5859375 L231.743164,24.5859375 L231.743164,11.9882812 L223.334961,11.9882812 L223.334961,24.5859375 C223.334961,26.5195312 223.642578,28.3603516 224.257812,30.1083984 C224.873047,31.8564453 225.737305,33.4482422 226.850586,34.8837891 C227.963867,36.3193359 229.296875,37.5546875 230.849609,38.5898438 C232.402344,39.625 234.106445,40.3769531 235.961914,40.8457031 L235.961914,40.8457031 L235.961914,54 L244.34082,54 Z" id="QUARTY" stroke="#2D2C3A" stroke-width="3" fill="#2D2C3A" fill-rule="nonzero"></path>
    </g>
</svg>